<?xml version="1.0" encoding="iso-8859-1"?>
<!-- Uploaded to: SVG Repo, www.svgrepo.com, Generator: SVG Repo Mixer Tools -->
<!DOCTYPE svg PUBLIC "-//W3C//DTD SVG 1.1//EN" "http://www.w3.org/Graphics/SVG/1.1/DTD/svg11.dtd">
<svg fill="#000000" version="1.1" id="Capa_1" xmlns="http://www.w3.org/2000/svg" xmlns:xlink="http://www.w3.org/1999/xlink" 
	 width="800px" height="800px" viewBox="0 0 317.794 317.795"
	 xml:space="preserve">
<g>
	<polygon points="117.303,55.534 207.657,55.534 222.544,79.724 102.419,79.724 	"/>
	<path d="M289.883,262.261H27.909v-92.726h81.014v9.406c0,11.86,9.644,21.503,21.501,21.503h56.948
		c11.854,0,21.491-9.643,21.491-21.503v-9.406h81.02V262.261z"/>
	<path d="M119.674,169.535h78.439v9.406c0,5.929-4.814,10.751-10.74,10.751h-56.948c-5.929,0-10.75-4.822-10.75-10.751V169.535z"/>
	<path d="M198.113,158.784h-78.439v-9.406c0-5.93,4.821-10.751,10.75-10.751h56.948c5.926,0,10.74,4.821,10.74,10.751V158.784z"/>
	<path d="M317.794,158.784h-22.525h-86.405v-9.406c0-11.858-9.638-21.502-21.491-21.502h-56.948
		c-11.858,0-21.501,9.644-21.501,21.502v9.406H22.534H0v-68.31h92.796h139.364h0.109h85.524V158.784z"/>
</g>
</svg>