<?xml version="1.0" standalone="no"?>
<!DOCTYPE svg PUBLIC "-//W3C//DTD SVG 20010904//EN"
 "http://www.w3.org/TR/2001/REC-SVG-20010904/DTD/svg10.dtd">
<svg version="1.0" xmlns="http://www.w3.org/2000/svg"
 width="1633.000000pt" height="1633.000000pt" viewBox="0 0 1633.000000 1633.000000"
 preserveAspectRatio="xMidYMid meet">
<metadata>
Created by potrace 1.14, written by Peter Selinger 2001-2017
</metadata>
<g transform="translate(0.000000,1633.000000) scale(0.100000,-0.100000)"
fill="#000000" stroke="none">
<path d="M10870 10526 c-94 -30 -167 -99 -187 -178 -19 -73 -7 -211 19 -229 6
-3 9 -9 9 -13 -1 -3 -1 -9 -1 -13 0 -10 71 -88 80 -88 4 0 14 -8 23 -17 30
-30 201 -103 217 -93 5 3 11 1 15 -4 3 -5 13 -10 23 -10 9 0 40 -4 67 -10 75
-14 337 -6 446 14 19 4 50 8 69 10 19 2 51 6 70 10 100 19 410 29 410 12 0 -5
3 -8 6 -4 13 12 114 -58 116 -80 0 -4 4 -18 9 -31 5 -13 9 -26 9 -28 0 -14 30
-33 61 -39 19 -3 39 -7 46 -8 22 -5 108 -52 131 -72 13 -11 29 -20 35 -20 7 0
12 -6 12 -13 0 -8 7 -19 15 -25 49 -39 84 -128 76 -195 -14 -122 -63 -209
-140 -249 -31 -17 -136 -25 -136 -11 0 5 -4 7 -9 6 -16 -5 -70 42 -87 73 -17
33 -26 138 -12 140 4 1 14 2 21 3 6 1 23 -5 36 -13 52 -33 131 3 131 60 0 29
-49 78 -87 87 -41 10 -93 9 -93 -1 0 -6 -3 -8 -6 -4 -10 10 -65 -22 -59 -34 4
-5 1 -8 -6 -7 -7 2 -22 -15 -33 -37 -32 -62 -29 -200 7 -277 14 -32 31 -58 37
-58 6 0 9 -4 6 -8 -3 -5 8 -23 24 -41 17 -18 30 -29 30 -25 0 4 12 -5 26 -19
15 -15 30 -24 35 -21 5 3 9 1 9 -5 0 -17 112 -44 186 -44 60 0 80 4 117 26 38
22 89 76 93 97 0 3 10 27 22 53 12 27 20 53 17 57 -3 5 -1 11 4 14 5 3 12 23
16 43 4 21 7 40 8 43 2 10 32 37 47 42 16 5 52 -28 59 -53 1 -7 9 -32 15 -54
16 -53 12 -105 -13 -146 -26 -43 -61 -118 -68 -144 -14 -49 -15 -105 -2 -105
7 0 9 -3 6 -7 -9 -9 13 -34 24 -27 5 3 9 0 9 -5 0 -6 15 -11 34 -11 27 0 41 8
70 43 51 58 56 65 56 75 0 4 9 18 20 30 12 12 18 22 14 22 -4 0 5 9 20 21 30
24 62 20 107 -12 15 -10 30 -19 34 -19 10 0 86 -62 114 -94 14 -15 33 -36 42
-45 38 -42 28 -77 -28 -101 -17 -8 -29 -18 -27 -22 3 -4 -2 -5 -10 -2 -9 3
-16 1 -16 -6 0 -6 -4 -8 -10 -5 -5 3 -10 1 -10 -5 0 -6 -6 -10 -12 -9 -7 2
-38 -3 -68 -9 -122 -27 -217 -17 -380 39 -63 21 -119 40 -125 42 -5 1 -16 8
-23 15 -19 17 -66 15 -89 -5 -11 -10 -31 -38 -44 -63 -33 -64 -32 -193 1 -264
29 -60 79 -112 114 -118 47 -9 214 4 257 20 13 5 26 10 29 10 3 0 13 4 23 8
27 10 30 -1 13 -35 -9 -17 -17 -34 -17 -38 -1 -5 -5 -17 -9 -29 -11 -28 -20
-77 -26 -144 -9 -94 39 -151 127 -153 32 -1 45 5 69 31 33 36 37 56 44 193 3
52 12 114 21 138 16 45 51 101 72 114 6 4 18 13 25 21 19 18 118 54 170 61
130 17 140 13 90 -40 -33 -35 -64 -94 -56 -106 3 -5 0 -9 -7 -9 -7 0 -9 -3 -6
-6 3 -4 2 -14 -3 -23 -19 -36 -27 -156 -16 -231 8 -52 47 -160 58 -160 5 0 8
-6 8 -14 0 -16 97 -102 111 -99 5 2 9 -1 9 -6 0 -5 9 -11 20 -14 11 -3 24 -6
28 -8 90 -32 192 -33 257 -3 45 21 127 93 120 104 -3 4 2 11 11 14 8 3 12 10
9 16 -3 5 -2 10 4 10 12 0 39 85 47 146 2 21 0 60 -6 85 -12 48 -65 123 -81
114 -5 -4 -9 -1 -9 5 0 6 -4 9 -9 6 -5 -4 -11 -1 -13 5 -4 12 -84 15 -120 4
-13 -4 -32 -15 -42 -24 -15 -13 -18 -13 -11 -1 5 8 -8 -1 -28 -20 -20 -19 -45
-52 -56 -75 -16 -35 -18 -52 -12 -100 0 -6 11 -16 22 -23 41 -26 61 -23 98 15
26 25 45 36 68 37 17 1 29 -2 26 -7 -2 -4 2 -10 10 -13 25 -9 12 -92 -18 -120
-14 -13 -31 -25 -38 -25 -48 -5 -117 -4 -144 3 -107 28 -155 189 -109 373 1 6
8 21 16 35 8 14 13 29 12 33 -1 5 1 6 6 3 5 -3 15 6 22 19 7 13 38 37 68 52
49 25 66 28 146 28 96 0 145 -5 161 -16 13 -8 68 -23 78 -21 4 1 7 -3 7 -8 0
-5 3 -9 8 -8 4 1 34 -11 67 -26 121 -56 121 -56 140 -42 14 10 18 25 17 60 -1
26 -6 55 -11 65 -22 40 19 48 65 12 14 -11 30 -19 34 -16 4 3 11 -2 14 -11 3
-8 10 -13 15 -10 5 3 11 -1 14 -9 4 -8 23 -25 44 -38 21 -14 68 -54 105 -91
37 -36 72 -66 78 -66 5 0 9 -3 8 -7 -3 -9 19 -37 68 -89 17 -18 34 -40 38 -49
3 -10 11 -13 18 -9 7 4 10 4 6 -1 -4 -4 9 -29 30 -54 51 -62 125 -171 120
-176 -2 -2 -31 -6 -64 -9 -34 -3 -73 -10 -87 -15 -15 -6 -27 -9 -27 -6 0 2
-19 -3 -42 -11 -24 -9 -47 -17 -53 -18 -46 -11 -95 -31 -95 -38 0 -5 -4 -7 -9
-3 -5 3 -12 1 -16 -5 -4 -6 -11 -8 -16 -5 -5 4 -9 1 -9 -4 0 -6 -3 -10 -7 -9
-11 3 -133 -54 -133 -62 0 -4 -6 -7 -12 -7 -7 0 -37 -14 -66 -32 -29 -17 -57
-31 -62 -31 -6 0 -10 -4 -10 -10 0 -5 -4 -10 -10 -10 -15 0 -150 -83 -150 -93
0 -4 -4 -6 -8 -3 -5 3 -20 -5 -33 -17 -13 -12 -25 -20 -26 -17 -1 3 -12 -3
-23 -12 -11 -10 -23 -18 -26 -18 -8 0 -98 -62 -105 -73 -3 -5 -10 -9 -15 -9
-11 -1 -97 -58 -105 -71 -3 -5 -10 -9 -15 -10 -9 0 -268 -167 -291 -187 -7 -5
-17 -10 -23 -10 -5 0 -10 -5 -10 -12 0 -6 -3 -9 -6 -5 -3 3 -29 -8 -57 -25
-62 -37 -177 -80 -177 -67 0 5 7 12 15 15 8 4 15 11 15 18 0 6 9 17 20 24 12
7 18 17 15 22 -3 6 -3 10 2 10 4 0 19 17 33 38 14 20 31 41 38 45 7 5 9 14 6
20 -4 7 -3 9 1 4 5 -4 18 2 30 13 11 11 39 24 60 29 l40 9 -34 1 c-35 1 -168
-34 -186 -49 -6 -5 -22 -11 -37 -14 -14 -2 -34 -9 -44 -15 -16 -10 -69 -32
-84 -36 -11 -2 -86 -27 -100 -32 -30 -12 -66 -17 -125 -17 -71 0 -100 6 -152
30 -41 20 -159 134 -161 156 0 7 -4 32 -8 54 -12 77 28 145 92 157 68 13 96
-58 43 -109 -34 -33 -37 -54 -8 -80 22 -20 114 -30 125 -13 3 5 10 7 15 4 5
-4 9 -1 9 5 0 6 4 9 8 6 5 -3 26 11 47 30 21 19 34 34 29 34 -5 0 -3 4 5 9 22
14 21 91 -1 139 -11 23 -24 42 -30 42 -5 0 -6 5 -3 10 3 6 2 10 -3 10 -4 0
-17 8 -28 18 -50 46 -157 65 -252 45 -36 -7 -70 -19 -74 -26 -4 -7 -8 -8 -8
-4 0 5 -15 -1 -34 -13 -32 -19 -35 -19 -38 -3 -2 10 -1 38 3 63 7 46 4 222 -5
295 -13 112 -16 132 -21 155 -4 14 -7 34 -9 45 -7 47 -39 161 -48 173 -6 6 -8
12 -4 12 3 0 0 15 -8 34 -8 19 -12 37 -8 40 3 3 0 6 -6 6 -7 0 -11 3 -10 8 5
12 -54 152 -64 152 -4 0 -8 7 -8 15 0 14 -18 53 -30 65 -3 3 -16 26 -29 53
-13 26 -28 47 -33 47 -5 0 -7 4 -3 9 3 6 -2 14 -11 19 -9 5 -16 13 -16 18 -1
21 -11 33 -22 27 -6 -3 -8 -3 -4 2 9 9 -31 67 -68 101 -13 12 -22 23 -19 26 3
2 -40 50 -95 106 -55 56 -100 100 -100 97 0 -2 -16 11 -36 30 -19 19 -49 42
-65 52 -16 10 -29 21 -29 25 0 4 -4 8 -10 8 -5 0 -21 9 -34 21 -13 12 -28 21
-33 22 -4 0 -14 7 -21 16 -11 13 -12 13 -7 1 4 -10 2 -9 -8 3 -8 9 -19 17 -26
17 -6 0 -11 5 -11 10 0 6 -5 10 -11 10 -6 0 -24 9 -40 21 -16 11 -29 17 -29
14 0 -4 -7 1 -16 9 -8 9 -20 14 -25 11 -5 -4 -9 -1 -9 5 0 6 -4 8 -10 5 -5 -3
-10 -3 -10 2 0 4 -15 14 -32 21 -18 8 -42 18 -53 23 -37 16 -215 78 -215 74 0
-2 -18 2 -40 10 -22 8 -43 14 -45 14 -3 0 -18 2 -33 5 -15 3 -40 8 -57 11 -16
3 -41 7 -55 10 -141 29 -487 20 -635 -16 -22 -6 -49 -11 -60 -13 -11 -2 -20
-4 -20 -5 0 -2 -9 -4 -19 -6 -11 -2 -31 -7 -45 -11 -14 -4 -28 -8 -31 -9 -18
-4 -117 -39 -125 -44 -5 -3 -16 -6 -23 -7 -29 -5 -203 -92 -213 -107 -3 -5 -8
-8 -10 -7 -9 4 -59 -24 -59 -32 0 -5 -4 -7 -9 -4 -5 3 -20 -5 -35 -19 -14 -13
-26 -22 -26 -19 0 5 -105 -72 -128 -93 -7 -7 -18 -13 -23 -13 -6 0 -7 -4 -4
-10 3 -5 1 -10 -5 -10 -7 0 -27 -16 -46 -35 -19 -20 -34 -33 -34 -31 0 2 -15
-10 -33 -27 -18 -18 -33 -34 -33 -37 0 -3 -20 -26 -44 -51 -57 -59 -82 -89
-73 -89 3 0 -5 -11 -18 -24 -30 -31 -35 -37 -86 -116 -62 -97 -113 -196 -106
-204 3 -3 2 -6 -4 -6 -10 0 -46 -82 -43 -96 1 -4 -3 -10 -9 -13 -6 -4 -12 -16
-14 -26 -1 -11 -5 -24 -8 -30 -21 -35 -81 -260 -72 -269 18 -18 -107 -22 -682
-20 -357 1 -653 3 -656 3 -3 1 -13 38 -24 84 -10 45 -22 88 -28 95 -5 6 -6 12
-2 12 4 0 3 6 -3 13 -6 6 -10 14 -10 17 5 26 -101 270 -131 304 -9 10 -15 20
-14 22 4 9 -10 44 -18 44 -5 0 -9 6 -9 14 0 8 -7 17 -16 20 -8 3 -12 10 -9 16
3 5 -7 22 -22 37 -15 14 -21 23 -13 19 8 -4 6 1 -6 11 -11 10 -21 22 -21 26
-1 8 -38 55 -85 109 -87 101 -113 126 -122 121 -6 -3 -8 -3 -4 1 8 9 -23 47
-33 40 -4 -2 -10 5 -14 16 -3 11 -12 20 -18 20 -7 0 -18 9 -25 20 -7 12 -17
18 -22 15 -6 -3 -10 0 -10 7 0 7 -19 26 -43 41 -23 15 -67 45 -97 67 -30 21
-58 37 -61 34 -4 -2 -10 3 -13 12 -3 8 -10 13 -15 10 -5 -4 -11 -3 -13 2 -4
10 -98 65 -98 57 0 -4 -12 2 -27 13 -27 18 -178 81 -205 86 -7 1 -17 4 -23 7
-5 4 -23 10 -40 14 -16 5 -37 10 -45 12 -8 3 -22 6 -30 7 -8 2 -22 6 -30 9 -8
3 -28 8 -45 11 -16 2 -37 7 -45 10 -32 11 -234 29 -345 29 -93 1 -251 -13
-325 -28 -14 -3 -38 -8 -55 -11 -44 -9 -60 -12 -60 -14 0 -1 -7 -3 -15 -5 -51
-10 -148 -41 -168 -53 -12 -8 -22 -11 -22 -8 0 4 -13 0 -30 -9 -17 -9 -30 -12
-30 -9 0 4 -9 -1 -20 -11 -11 -10 -20 -15 -20 -12 0 8 -122 -54 -131 -66 -3
-5 -10 -9 -15 -9 -20 0 -124 -65 -117 -73 5 -4 3 -5 -4 -2 -6 4 -18 0 -26 -8
-9 -8 -19 -15 -24 -15 -4 0 -25 -15 -45 -33 -21 -17 -52 -43 -69 -57 -18 -14
-54 -46 -80 -71 -27 -26 -49 -44 -49 -42 0 2 -12 -10 -27 -29 -16 -18 -40 -45
-56 -60 -15 -15 -27 -32 -27 -38 0 -5 -4 -10 -9 -10 -5 0 -27 -25 -50 -55 -23
-30 -39 -55 -37 -55 3 0 -6 -12 -19 -26 -14 -15 -25 -33 -25 -40 0 -8 -4 -14
-8 -14 -10 0 -37 -50 -34 -62 1 -5 -2 -8 -7 -8 -10 0 -66 -110 -63 -122 1 -5
-3 -8 -9 -8 -5 0 -7 -4 -4 -10 3 -5 1 -10 -4 -10 -6 0 -11 -5 -11 -11 0 -6 -7
-25 -15 -42 -21 -46 -74 -197 -70 -197 3 0 0 -12 -6 -27 -6 -16 -13 -37 -15
-48 -16 -73 -26 -124 -30 -150 -2 -16 -6 -46 -10 -65 -3 -19 -8 -123 -9 -230
-2 -107 -4 -197 -4 -199 -1 -2 -8 2 -16 9 -8 7 -15 9 -15 4 0 -4 -6 -1 -13 8
-17 23 -116 49 -179 48 -29 0 -61 -1 -70 -1 -10 0 -18 -5 -18 -10 0 -6 -5 -7
-11 -4 -5 4 -20 -1 -31 -12 -14 -12 -19 -13 -13 -3 5 9 -1 7 -15 -5 -87 -73
-114 -134 -96 -214 6 -27 65 -93 77 -86 4 3 9 0 11 -5 2 -6 12 -13 23 -15 11
-2 20 -4 20 -5 0 -2 18 -4 40 -5 43 -3 74 9 90 34 15 25 13 34 -17 64 -28 28
-32 36 -28 72 2 28 11 34 48 39 21 2 41 -3 56 -15 13 -10 27 -15 31 -11 5 4 5
2 2 -5 -4 -6 -2 -13 3 -15 11 -3 21 -44 23 -89 2 -32 -23 -109 -35 -109 -5 0
-7 -4 -3 -9 3 -6 -4 -15 -15 -21 -11 -6 -17 -16 -14 -22 4 -6 3 -8 -3 -5 -13
8 -36 -17 -25 -28 4 -5 2 -5 -4 -2 -6 3 -20 -1 -30 -11 -11 -9 -26 -18 -34
-20 -8 -2 -18 -8 -21 -14 -3 -5 -9 -9 -13 -9 -3 1 -7 1 -8 0 -92 -28 -204 -17
-323 30 -16 6 -50 19 -75 28 -25 9 -50 20 -56 25 -6 4 -19 9 -30 11 -10 2 -32
10 -49 16 -16 7 -37 14 -45 16 -8 2 -15 4 -15 5 0 3 -42 11 -80 15 -35 3 -37
3 -15 -6 14 -6 29 -11 35 -12 5 -1 15 -9 22 -17 7 -8 13 -11 13 -7 0 10 64
-71 103 -131 15 -24 34 -45 42 -49 8 -3 15 -9 15 -14 0 -12 -23 -11 -57 2 -15
6 -29 10 -30 10 -2 0 -30 15 -64 34 -33 19 -65 35 -70 35 -5 0 -9 5 -9 11 0 5
-4 8 -9 5 -5 -4 -11 -3 -13 1 -5 12 -88 64 -88 56 0 -5 -4 -3 -8 3 -14 20
-100 73 -107 66 -5 -4 -5 -2 -2 4 6 10 -20 29 -32 24 -2 -1 -7 2 -10 7 -13 19
-69 52 -76 45 -5 -4 -5 -2 -2 4 6 10 -20 29 -32 24 -2 -1 -7 2 -10 7 -7 11
-97 73 -106 73 -3 0 -15 9 -27 20 -11 10 -36 26 -54 35 -18 8 -36 20 -39 24
-3 5 -36 26 -73 47 -37 20 -74 42 -82 49 -8 7 -37 24 -63 39 -26 14 -59 33
-72 42 -14 9 -25 12 -25 8 0 -5 -4 -4 -8 2 -10 16 -209 114 -216 106 -3 -3 -6
0 -6 7 0 8 -7 11 -15 7 -8 -3 -15 -1 -15 4 0 6 -3 9 -7 8 -5 -1 -18 3 -30 10
-12 6 -30 13 -40 15 -10 1 -23 6 -29 9 -6 4 -22 9 -37 12 -15 2 -30 7 -34 9
-15 9 -104 23 -170 26 -17 1 -21 5 -16 19 4 9 14 22 22 29 9 7 12 13 6 13 -6
0 -6 3 1 8 6 4 30 34 54 67 24 33 49 65 54 71 6 7 27 31 46 55 19 23 55 63 80
88 25 24 38 41 30 37 -8 -4 -6 0 4 8 11 9 24 16 29 16 4 0 6 4 3 9 -3 4 6 13
20 20 14 6 22 16 19 21 -3 6 -1 10 4 10 6 0 26 15 45 33 19 17 46 41 62 52 15
11 38 30 51 43 13 13 23 20 23 17 0 -4 15 2 33 13 17 11 43 23 56 27 22 7 23
5 15 -27 -12 -56 -12 -119 2 -133 14 -13 64 -9 64 6 0 5 4 8 8 7 11 -4 115 44
124 57 4 5 8 6 8 1 0 -5 7 -3 15 4 8 7 15 9 15 5 0 -4 6 -3 12 3 7 5 29 13 48
17 19 4 40 11 45 15 15 11 196 9 225 -2 58 -24 76 -35 112 -70 21 -21 36 -38
33 -38 -3 0 2 -11 10 -24 22 -33 27 -59 30 -155 3 -96 -13 -158 -54 -204 -34
-38 -63 -50 -136 -52 -94 -3 -131 19 -141 84 -12 77 35 110 93 63 15 -12 31
-22 36 -22 4 0 5 -5 2 -10 -12 -19 27 -23 61 -7 55 27 58 95 7 166 -29 41 -92
84 -128 88 -59 6 -83 4 -115 -9 -40 -17 -92 -66 -84 -79 3 -5 0 -9 -6 -9 -6 0
-9 -4 -5 -9 3 -5 1 -12 -4 -15 -5 -3 -9 -21 -9 -38 0 -18 -1 -37 -2 -43 -1 -5
-2 -12 -1 -15 1 -3 4 -22 6 -42 6 -54 51 -143 96 -189 59 -60 124 -87 206 -84
72 3 129 11 147 23 6 4 13 7 16 8 38 12 49 18 44 25 -3 5 0 9 7 9 16 0 79 48
79 61 0 5 9 19 20 31 10 12 17 25 14 30 -3 4 0 8 6 8 6 0 8 5 5 10 -3 6 -1 10
4 10 6 0 10 3 10 8 -1 4 0 9 1 12 2 6 9 35 17 70 8 37 7 169 -2 215 -4 22 -13
52 -21 67 -8 15 -14 29 -13 30 5 8 -14 48 -22 48 -5 0 -9 6 -9 14 0 8 -12 24
-27 36 -19 15 -24 23 -15 29 21 12 131 -1 194 -25 24 -8 49 -16 56 -16 6 -1
12 -6 12 -11 0 -6 3 -8 6 -5 3 4 18 -7 33 -23 15 -16 30 -27 33 -24 2 3 11
-11 18 -30 8 -19 18 -35 24 -35 5 0 7 -3 3 -6 -3 -3 -1 -18 4 -32 12 -31 20
-93 24 -187 4 -93 7 -102 38 -135 49 -52 133 -42 179 22 21 30 26 96 14 158
-3 14 -8 38 -12 54 -3 15 -17 52 -30 82 -13 30 -22 54 -21 54 2 0 26 -6 53
-14 75 -22 123 -29 199 -31 67 -2 125 11 125 27 0 4 6 8 13 8 11 0 62 71 62
88 0 4 5 14 10 22 5 8 10 53 12 100 2 67 -2 94 -18 129 -17 39 -69 104 -69 87
0 -4 -9 -2 -19 4 -15 8 -24 6 -37 -8 -10 -9 -20 -16 -23 -15 -11 5 -41 -8 -41
-18 0 -5 -3 -8 -8 -8 -4 1 -10 0 -14 -1 -5 -1 -11 -3 -15 -4 -5 -2 -35 -11
-68 -21 -33 -10 -63 -18 -67 -17 -5 1 -8 -2 -8 -6 0 -4 -8 -8 -17 -9 -10 0
-47 -4 -83 -8 -107 -13 -175 -8 -251 20 -24 9 -50 17 -56 17 -7 1 -13 5 -13
10 0 4 -5 8 -12 8 -6 0 -26 11 -45 26 -32 24 -32 26 -18 53 14 27 78 96 145
156 19 17 30 24 25 16 -5 -8 7 -3 26 11 19 15 37 27 42 27 4 1 8 1 10 2 37 12
56 7 78 -22 13 -18 29 -37 35 -43 6 -6 10 -14 10 -18 -1 -3 9 -18 21 -32 13
-14 20 -26 18 -26 -9 0 29 -36 55 -53 22 -13 29 -14 57 -2 57 24 72 87 41 164
-6 14 -11 29 -10 34 1 4 -2 7 -8 7 -6 0 -9 3 -8 8 2 4 -8 25 -21 47 -13 22
-22 40 -20 40 1 0 -4 11 -11 25 -8 14 -14 27 -13 30 1 3 4 24 7 45 8 57 10 67
24 93 7 12 10 22 7 22 -3 0 3 8 12 18 19 19 26 20 55 8 14 -7 23 -23 33 -63 2
-6 9 -29 16 -50 7 -21 12 -42 11 -46 -1 -4 3 -18 10 -30 7 -12 13 -24 13 -27
2 -13 39 -75 54 -90 76 -78 221 -86 359 -19 59 29 141 107 134 130 -1 5 2 9 7
9 10 0 27 39 23 53 -1 4 3 7 10 7 6 0 8 3 5 6 -3 4 -2 16 4 26 30 56 10 209
-33 255 -45 49 -135 76 -165 51 -7 -6 -13 -7 -13 -4 0 13 -62 -29 -73 -49 -16
-28 -19 -55 -6 -55 5 0 8 -4 4 -10 -6 -10 52 -44 75 -43 24 2 60 15 60 22 0 4
9 7 20 8 24 2 34 -29 27 -86 -6 -52 -60 -137 -79 -125 -4 3 -8 1 -8 -3 0 -13
-82 -20 -142 -12 -24 3 -104 79 -112 107 -4 12 -12 22 -17 22 -5 0 -8 3 -7 8
1 4 -4 27 -11 52 -19 64 -20 110 -4 149 7 19 11 36 9 38 -6 6 20 38 86 106 32
32 58 55 58 50 0 -4 7 1 15 11 8 11 15 17 15 13 0 -4 17 1 38 12 20 10 55 22
77 25 21 4 47 15 56 25 17 18 35 60 31 74 -1 4 2 7 7 7 5 0 13 9 16 21 4 11 9
18 12 15 3 -3 14 4 24 16 11 11 19 18 19 14 0 -3 16 1 36 9 28 12 65 14 173
10 75 -2 152 -7 171 -10 19 -3 51 -7 70 -10 19 -3 55 -8 80 -11 25 -2 56 -6
70 -9 131 -27 406 -27 520 0 14 3 35 8 48 11 38 8 162 66 162 76 0 5 5 6 10 3
6 -4 37 20 69 53 44 45 63 74 78 118 26 79 22 181 -8 236 -7 12 -13 26 -14 29
0 12 -73 78 -79 72 -3 -3 -6 -1 -6 5 0 9 -22 21 -52 28 -5 1 -9 2 -10 4 -19
14 -140 19 -163 6 -29 -17 -45 -33 -38 -40 4 -3 2 -6 -4 -6 -15 0 -30 -48 -28
-91 2 -46 23 -99 40 -99 8 0 15 -5 17 -11 2 -6 23 -11 47 -12 37 -1 47 4 68
29 13 16 33 40 45 54 l20 24 29 -32 c29 -32 38 -75 19 -87 -6 -4 -8 -10 -6
-14 3 -4 -13 -18 -36 -31 -38 -21 -55 -23 -202 -26 -89 -1 -174 -5 -191 -8
-34 -8 -56 -31 -48 -52 5 -12 100 -65 130 -71 7 -2 21 -5 30 -6 9 -2 19 -10
21 -17 4 -10 -15 -11 -84 -7 -49 4 -98 8 -109 10 -11 3 -42 8 -70 12 -27 5
-52 9 -55 10 -3 1 -25 5 -50 9 -25 5 -54 10 -65 13 -302 64 -594 75 -772 29
-41 -11 -68 -17 -93 -22 -13 -3 -29 -9 -36 -15 -6 -5 -14 -6 -17 -2 -4 3 -7 2
-7 -4 0 -5 -6 -10 -12 -10 -19 0 -128 -55 -128 -65 0 -4 -3 -7 -7 -6 -21 6
-153 -106 -153 -130 0 -5 -6 -12 -14 -15 -12 -5 -160 -195 -161 -207 0 -3 -10
-16 -22 -30 -12 -14 -23 -28 -23 -32 0 -4 -14 -22 -30 -39 -16 -18 -27 -36
-24 -41 3 -4 1 -8 -4 -8 -5 0 -21 -18 -36 -40 -15 -22 -33 -48 -41 -58 -9 -9
-15 -21 -15 -25 0 -4 -14 -21 -32 -37 -18 -17 -30 -30 -26 -30 4 0 -6 -13 -20
-28 -15 -16 -53 -56 -84 -90 -32 -34 -58 -59 -58 -56 0 4 -13 -7 -30 -24 -16
-18 -30 -29 -30 -26 0 3 -15 -6 -33 -20 -38 -29 -171 -91 -188 -88 -4 1 -9
-17 -13 -39 -4 -22 -13 -51 -21 -63 -8 -12 -13 -26 -10 -29 3 -4 2 -5 -1 -3
-9 7 -33 -17 -27 -27 2 -4 1 -7 -4 -6 -4 1 -24 -5 -43 -13 -21 -10 -42 -13
-55 -8 -23 9 -307 5 -345 -5 -14 -3 -34 -8 -45 -9 -97 -17 -219 -52 -253 -74
-12 -8 -22 -11 -22 -8 0 4 -12 1 -27 -7 -16 -8 -46 -23 -68 -33 -22 -11 -44
-25 -48 -32 -5 -7 -12 -10 -16 -8 -4 3 -18 -4 -29 -15 -12 -11 -22 -17 -22
-14 0 9 -62 -35 -83 -59 -10 -12 -15 -14 -11 -6 7 13 6 13 -12 0 -10 -8 -23
-20 -29 -26 -5 -5 -32 -28 -60 -49 -72 -58 -200 -185 -197 -197 1 -5 -1 -7 -6
-4 -4 2 -19 -10 -32 -27 -14 -17 -35 -41 -48 -54 -13 -13 -21 -23 -18 -23 3 0
-5 -10 -17 -23 -39 -39 -82 -99 -79 -109 1 -5 -2 -7 -7 -4 -5 4 -15 -7 -23
-24 -7 -16 -16 -30 -19 -30 -4 0 -24 -25 -44 -55 -21 -30 -42 -56 -47 -56 -11
-2 -13 -2 -78 -18 -30 -8 -59 -16 -65 -20 -5 -3 -14 -6 -20 -6 -15 0 -85 -24
-130 -45 -22 -9 -50 -21 -62 -24 -13 -4 -23 -12 -23 -17 0 -5 -4 -8 -8 -7 -9
3 -111 -58 -157 -94 -82 -64 -223 -227 -208 -241 3 -4 1 -7 -5 -7 -7 0 -12 -7
-12 -15 0 -8 -4 -15 -8 -15 -11 0 -87 -152 -84 -167 2 -7 -1 -13 -6 -13 -5 0
-12 -11 -14 -24 -4 -21 -3 -23 14 -13 10 7 18 15 18 19 0 5 7 8 15 8 9 0 18 7
21 15 4 8 9 13 14 10 4 -2 17 5 28 16 12 11 22 16 22 12 0 -4 7 1 15 11 8 11
15 16 15 12 0 -5 6 -4 13 2 6 5 28 19 48 30 77 43 84 47 90 55 3 5 8 8 10 7 8
-3 45 14 62 28 9 8 17 12 17 8 0 -3 21 4 48 17 41 21 184 79 205 83 4 1 8 2
10 4 3 2 23 7 62 15 16 3 34 10 41 16 6 5 13 7 15 4 3 -2 22 0 44 6 93 21 301
29 405 15 25 -3 63 -9 85 -12 22 -3 55 -9 74 -14 19 -5 38 -7 43 -4 4 3 8 1 8
-4 0 -5 6 -9 13 -9 6 0 32 -6 57 -14 25 -7 50 -13 55 -14 6 0 12 -3 15 -7 3
-4 15 -9 25 -11 11 -2 34 -11 51 -20 17 -9 34 -13 38 -10 3 4 6 2 6 -4 0 -5
18 -16 40 -23 22 -7 40 -16 40 -19 0 -8 62 -36 73 -33 4 1 7 -2 7 -8 0 -5 6
-10 14 -10 8 0 16 -4 18 -8 2 -5 28 -23 58 -40 79 -46 94 -56 100 -63 3 -3 41
-30 85 -60 44 -29 85 -58 91 -64 30 -26 138 -100 142 -97 3 2 9 -3 14 -12 5
-9 13 -14 18 -11 4 3 11 -2 14 -11 3 -8 10 -12 16 -9 5 3 10 1 10 -5 0 -6 8
-14 18 -18 9 -4 35 -19 57 -32 22 -14 43 -24 48 -22 4 1 7 -2 7 -7 0 -5 8 -11
18 -15 9 -3 32 -15 50 -26 18 -11 31 -16 27 -10 -4 6 10 -1 30 -15 21 -13 41
-22 46 -19 5 3 9 0 9 -6 0 -6 5 -8 11 -4 6 3 14 2 18 -3 6 -9 143 -52 188 -60
13 -2 35 -6 50 -8 160 -30 349 -20 456 22 79 32 187 113 179 136 -1 5 2 6 7 2
10 -6 37 33 33 48 -1 4 2 7 7 7 5 0 12 7 15 16 4 12 0 11 -20 -5 -14 -11 -39
-23 -57 -26 -18 -4 -36 -10 -42 -13 -16 -10 -109 -11 -125 -1 -9 5 -10 9 -3 9
6 0 24 5 40 12 15 6 30 12 33 13 8 2 82 39 110 56 14 8 35 24 47 37 13 13 23
20 23 17 0 -3 17 10 38 30 20 20 35 38 32 39 -3 1 5 12 18 26 12 13 22 30 22
37 0 32 32 6 37 -30 2 -10 10 -31 18 -47 8 -16 15 -33 15 -39 0 -12 66 -154
77 -165 4 -4 8 -11 8 -14 1 -6 16 -35 73 -138 7 -13 17 -24 23 -24 5 0 9 -6 9
-13 0 -7 13 -27 29 -44 16 -18 27 -34 25 -36 -2 -2 18 -27 46 -56 27 -29 44
-49 38 -46 -42 22 245 -243 291 -269 9 -5 21 -14 28 -20 35 -30 43 -36 43 -29
0 4 4 3 8 -2 10 -15 72 -58 72 -50 0 3 10 -3 22 -14 11 -11 25 -18 30 -15 4 3
8 1 8 -4 0 -5 8 -12 18 -15 9 -3 33 -15 52 -25 70 -40 205 -93 214 -85 3 4 6
2 6 -4 0 -6 10 -13 22 -16 13 -3 59 -15 103 -27 44 -12 91 -23 105 -25 14 -2
50 -9 80 -15 174 -34 486 -29 655 11 44 11 64 15 115 24 19 4 41 12 48 17 6 6
12 8 12 4 0 -5 19 1 95 30 11 4 22 8 25 8 20 3 146 62 152 70 4 6 8 8 8 4 0
-12 159 78 172 96 4 6 8 8 8 4 0 -13 173 112 209 150 19 21 37 37 40 37 3 0 5
3 4 7 -2 5 3 7 10 5 6 -1 11 4 9 11 -1 8 1 11 6 8 10 -6 58 45 54 57 -1 5 2 6
7 3 5 -3 29 18 53 46 23 29 50 58 58 65 8 7 12 13 8 13 -4 0 8 17 27 37 19 20
32 41 29 45 -3 4 -1 8 4 8 5 0 26 25 46 55 20 30 34 55 30 55 -3 0 2 7 10 16
9 8 16 22 16 30 0 8 4 14 8 14 5 0 25 35 45 78 57 122 86 192 80 192 -3 0 -1
6 4 13 9 10 14 25 28 77 0 3 9 31 19 64 9 32 19 70 21 85 2 14 7 38 10 54 13
70 16 86 21 142 4 33 7 102 8 152 0 54 5 93 11 94 14 1 1204 1 1236 0 24 -1
26 -4 27 -53 3 -147 16 -261 44 -380 11 -48 19 -90 19 -93 -1 -3 6 -19 14 -35
9 -17 13 -30 10 -30 -2 0 7 -33 21 -72 30 -84 143 -318 153 -318 4 0 8 -6 8
-12 0 -19 113 -178 125 -178 6 0 8 -3 5 -7 -4 -3 5 -16 18 -29 14 -13 26 -27
27 -31 2 -7 53 -65 99 -112 29 -30 156 -140 194 -170 42 -32 115 -80 115 -76
0 3 10 -3 22 -15 12 -11 27 -20 34 -20 7 0 14 -4 16 -8 5 -12 164 -92 182 -92
9 0 16 -5 16 -11 0 -5 5 -7 10 -4 6 3 10 1 10 -4 0 -6 3 -10 8 -9 7 1 26 -5
67 -22 35 -15 148 -49 200 -61 28 -6 59 -13 70 -15 11 -3 34 -7 50 -10 17 -2
44 -6 60 -9 190 -32 475 -20 685 30 105 25 150 39 150 47 0 5 5 6 10 3 6 -4
18 -1 27 7 9 7 18 11 20 10 6 -6 167 60 174 71 3 5 8 8 10 7 10 -6 108 47 121
65 5 7 8 7 8 0 0 -6 3 -5 8 1 4 6 22 19 40 28 17 9 32 21 32 27 0 6 4 8 9 5 8
-6 113 72 138 102 10 11 12 12 7 2 -4 -8 10 2 30 23 20 20 36 35 36 32 0 -3
10 5 22 17 13 13 22 26 21 30 -2 5 1 7 6 5 5 -1 24 14 43 34 64 70 129 148
128 154 0 3 9 15 22 25 13 11 19 19 13 20 -5 0 1 7 13 16 12 8 20 19 17 24 -3
4 -1 10 4 12 14 5 111 165 104 172 -4 3 -1 6 5 6 10 0 28 38 24 53 -1 4 3 7 8
7 6 0 10 5 10 10 0 6 9 29 20 53 20 43 57 136 59 149 8 40 26 49 36 18 6 -18
124 -143 156 -165 33 -23 79 -46 79 -40 0 4 7 0 15 -9 9 -8 40 -23 70 -32 65
-21 56 -32 -23 -29 -66 3 -150 30 -170 54 -7 9 -5 0 4 -19 9 -18 23 -40 30
-48 8 -7 19 -22 24 -32 13 -24 148 -112 160 -105 6 3 10 1 10 -6 0 -7 3 -9 6
-6 4 3 15 2 26 -4 36 -19 163 -37 236 -33 80 5 174 14 181 18 3 2 28 7 55 10
27 4 53 9 58 12 5 3 20 8 35 10 15 3 31 8 37 12 6 3 18 7 26 9 38 5 260 112
260 125 0 5 4 7 8 4 5 -3 18 2 28 12 11 9 26 18 33 20 8 2 24 11 36 20 24 18
45 33 86 60 110 72 172 117 176 128 3 8 9 12 13 9 5 -3 11 -1 15 5 3 5 42 33
86 61 43 28 79 55 79 60 0 5 3 8 8 7 12 -3 62 24 62 34 0 4 7 8 15 8 8 0 15 4
15 10 0 5 3 9 8 8 9 -3 75 32 83 44 3 5 9 9 13 9 3 0 31 11 61 24 30 14 56 24
58 23 2 -2 10 2 18 8 11 9 101 43 129 49 3 1 25 7 50 14 135 39 259 55 425 54
95 0 255 -21 305 -40 19 -8 41 -13 63 -15 9 -1 17 -6 17 -11 0 -4 6 -7 13 -6
6 1 21 -2 32 -6 11 -4 54 -21 95 -37 41 -17 80 -34 86 -39 6 -5 14 -6 17 -2 4
3 7 2 7 -3 0 -6 17 -16 37 -23 20 -8 59 -27 87 -44 28 -16 57 -30 64 -30 6 0
12 -3 12 -7 0 -11 57 -40 65 -32 5 4 5 1 1 -5 -6 -12 0 -15 20 -12 4 0 10 -4
13 -10 4 -6 35 -29 70 -51 34 -22 59 -35 54 -28 -4 7 -8 15 -8 18 -3 22 -18
50 -27 50 -6 0 -9 3 -5 6 9 9 -88 195 -105 202 -5 2 -8 8 -8 14 0 6 -10 19
-22 29 -11 11 -17 19 -13 19 9 0 -147 153 -191 187 -16 13 -35 23 -41 23 -7 0
-13 3 -13 8 0 4 -9 12 -19 17 -41 21 -146 70 -151 70 -3 0 -9 3 -15 6 -10 7
-106 39 -128 43 -7 2 -19 6 -27 9 -8 3 -33 9 -55 13 -40 7 -48 9 -62 14 -5 1
-12 1 -18 0 -5 -1 -7 2 -3 6 7 7 -58 105 -74 112 -5 2 -8 8 -8 14 0 12 -73
103 -104 131 -12 10 -14 16 -6 12 8 -4 0 7 -18 24 -18 17 -30 31 -27 31 3 0 0
6 -7 14 -7 8 -17 11 -22 8 -5 -3 -6 -1 -3 4 8 14 -191 215 -268 269 -15 11
-35 28 -44 38 -8 9 -21 17 -28 17 -7 0 -13 4 -13 8 0 5 -12 15 -27 23 -16 8
-37 22 -47 32 -11 9 -24 17 -29 17 -5 0 -21 9 -37 20 -15 11 -30 17 -34 13 -3
-3 -6 0 -6 7 0 7 -3 11 -6 7 -4 -3 -13 1 -21 9 -8 8 -19 12 -24 9 -5 -4 -9 -2
-9 2 0 10 -29 22 -150 62 -80 28 -133 41 -225 57 -59 10 -313 13 -345 4 -18
-5 -38 -3 -59 8 -35 16 -103 90 -96 103 3 4 1 10 -3 13 -5 3 -8 17 -7 31 3 21
-3 28 -33 41 -21 8 -45 16 -54 17 -10 1 -18 4 -18 7 0 3 -15 11 -32 19 -18 8
-35 17 -38 20 -3 4 -24 18 -47 33 -45 30 -195 176 -228 224 -11 15 -27 35 -35
44 -8 9 -28 35 -44 58 -16 23 -33 42 -38 42 -5 0 -7 4 -4 8 3 5 -9 24 -27 42
-18 19 -25 30 -17 26 8 -4 3 4 -13 18 -15 14 -27 28 -26 32 2 7 -16 34 -43 66
-10 12 -18 24 -18 27 0 3 -10 17 -23 31 -13 14 -27 32 -33 41 -12 22 -89 113
-138 164 -21 22 -38 42 -37 45 2 8 -152 99 -160 94 -4 -2 -9 0 -11 5 -1 5 -10
11 -18 13 -8 2 -17 5 -20 8 -7 7 -127 47 -170 56 -98 20 -170 27 -285 28 -148
0 -278 -14 -455 -50 -14 -3 -38 -7 -55 -9 -16 -3 -41 -7 -55 -10 -48 -10 -75
-15 -110 -21 -19 -3 -41 -7 -49 -10 -29 -10 -211 -15 -211 -6 0 5 19 15 43 22
23 8 48 18 56 24 8 6 16 10 18 9 9 -7 22 -1 47 22 64 59 17 78 -203 81 -158 2
-211 10 -226 34 -3 5 -11 8 -16 4 -5 -3 -8 -2 -7 3 1 4 -2 17 -8 28 -6 11 -9
26 -8 33 1 6 2 16 3 20 2 15 42 57 54 57 7 0 27 -21 45 -47 21 -31 40 -49 55
-50 41 -2 72 3 79 15 4 7 8 8 8 3 0 -5 7 -3 15 4 8 7 13 16 10 20 -3 5 0 10 6
12 14 5 24 99 15 125 -4 10 -6 19 -4 20 2 1 -6 9 -17 18 -11 9 -14 14 -7 10 6
-3 12 -4 12 -1 0 3 -18 15 -40 26 -43 22 -104 25 -160 6z m-20 -1351 c25 -4
59 -9 75 -11 58 -7 151 -31 225 -58 41 -15 82 -28 90 -29 8 -1 17 -5 20 -8 7
-7 93 -47 104 -47 5 0 12 -5 15 -10 3 -6 13 -12 21 -14 8 -2 23 -11 34 -20 10
-10 23 -15 28 -12 4 3 8 2 8 -3 0 -4 17 -19 38 -32 20 -14 47 -34 60 -45 12
-11 22 -17 22 -13 0 3 10 -4 23 -16 53 -51 86 -75 92 -69 4 4 5 2 3 -3 -4 -14
48 -66 58 -57 4 4 5 2 1 -3 -3 -6 18 -36 47 -68 29 -31 51 -58 50 -60 -2 -2 9
-17 25 -34 16 -18 26 -34 23 -37 -3 -3 0 -6 6 -6 7 0 12 -7 12 -15 0 -9 7 -18
15 -21 8 -4 13 -9 10 -14 -2 -4 5 -17 16 -28 11 -12 17 -22 14 -22 -3 0 8 -24
24 -52 30 -54 113 -258 105 -258 -3 0 0 -8 5 -19 6 -10 13 -33 16 -52 3 -19 8
-42 11 -52 3 -11 7 -29 9 -40 2 -12 7 -47 11 -77 9 -63 9 -320 0 -395 -3 -27
-10 -64 -15 -82 -5 -17 -7 -34 -4 -37 3 -2 1 -11 -3 -18 -9 -14 -14 -31 -17
-65 -1 -13 -5 -23 -8 -23 -4 0 -10 -17 -14 -37 -4 -21 -11 -44 -17 -50 -6 -7
-8 -13 -4 -13 4 0 -1 -11 -10 -25 -9 -14 -14 -25 -11 -25 7 0 -56 -130 -88
-180 -14 -22 -23 -40 -20 -40 3 0 -6 -12 -20 -27 -14 -15 -25 -32 -25 -36 0
-5 -6 -14 -12 -22 -7 -7 -24 -28 -38 -47 -14 -18 -42 -51 -62 -74 -21 -22 -35
-44 -31 -47 3 -4 1 -7 -6 -7 -6 0 -29 -17 -51 -37 -92 -89 -124 -117 -116
-103 4 8 -3 4 -16 -10 -13 -14 -27 -27 -33 -29 -21 -9 -65 -38 -62 -42 1 -2 0
-3 -1 -2 -2 1 -29 -13 -60 -31 -32 -18 -79 -44 -107 -57 -27 -13 -52 -26 -55
-29 -3 -3 -12 -6 -20 -7 -8 -1 -55 -16 -103 -33 -49 -17 -105 -33 -125 -36
-20 -3 -41 -9 -47 -12 -5 -3 -23 -7 -40 -8 -16 -1 -57 -5 -90 -10 -87 -11
-400 -6 -400 6 0 2 -32 8 -70 14 -16 3 -41 8 -55 12 -14 3 -33 7 -42 7 -10 1
-18 6 -18 11 0 5 -2 7 -5 4 -7 -6 -146 42 -194 67 -17 8 -31 12 -31 8 0 -5 -4
-3 -8 2 -4 6 -20 17 -37 25 -16 8 -42 22 -56 32 -14 9 -31 18 -39 20 -7 2 -21
10 -31 18 -37 31 -48 40 -54 40 -2 0 -16 10 -31 23 -14 12 -27 21 -30 20 -2
-2 -45 38 -96 87 -51 50 -96 90 -100 90 -4 0 -10 5 -14 12 -5 7 -3 8 7 3 12
-8 12 -6 0 8 -7 9 -17 14 -22 11 -5 -3 -8 -1 -7 4 2 5 -9 24 -24 41 -16 17
-28 35 -28 39 0 5 -9 17 -20 27 -11 10 -20 23 -20 30 0 6 -8 20 -17 31 -38 43
-144 260 -158 324 -1 3 -9 31 -19 64 -10 32 -20 66 -21 75 -2 9 -4 16 -5 16
-2 0 -3 9 -14 80 -25 168 -26 369 -2 491 2 12 7 37 10 55 3 19 10 49 15 67 5
17 7 32 3 32 -3 0 -1 5 6 12 7 7 12 19 12 28 0 16 43 131 78 210 12 25 22 50
24 55 1 6 8 17 15 25 7 8 13 19 12 24 0 5 3 12 8 15 5 3 28 36 51 73 24 36 54
79 68 95 13 15 24 34 24 40 0 7 4 12 8 10 4 -1 24 16 43 38 35 41 48 53 125
120 25 22 56 49 68 60 11 11 24 19 29 17 4 -1 7 2 7 8 0 6 7 10 15 10 8 0 15
4 15 8 0 14 232 142 257 142 7 0 13 5 13 12 0 6 3 8 6 5 4 -3 15 -2 26 4 11 6
27 12 36 14 17 4 102 31 132 42 8 3 22 7 30 8 63 11 96 18 102 21 4 3 40 7 80
10 40 3 74 6 75 8 6 5 240 -2 283 -9z m-4992 -9 c49 -6 119 -19 170 -31 12 -3
32 -7 44 -10 12 -2 44 -12 72 -22 28 -9 53 -18 56 -18 3 -1 23 -9 45 -18 22
-10 44 -17 49 -16 5 0 12 -3 15 -8 8 -11 63 -37 74 -35 4 1 7 -3 7 -9 0 -5 5
-7 10 -4 6 3 10 2 10 -3 0 -9 36 -29 54 -30 5 0 12 -4 15 -9 3 -5 29 -25 56
-43 28 -19 55 -39 62 -45 6 -5 26 -21 44 -35 18 -14 56 -48 85 -77 29 -28 56
-49 60 -45 4 4 4 2 1 -5 -4 -6 3 -20 16 -30 12 -10 44 -47 70 -83 27 -36 55
-73 63 -83 8 -9 14 -22 14 -27 0 -6 5 -10 11 -10 5 0 7 -5 4 -10 -3 -6 1 -13
9 -16 9 -3 14 -10 11 -14 -3 -5 1 -15 9 -23 8 -8 12 -17 9 -21 -4 -3 -2 -6 3
-6 6 0 16 -16 23 -35 7 -19 17 -35 23 -35 6 0 9 -3 5 -6 -3 -3 4 -27 15 -52
42 -97 80 -230 94 -327 3 -22 10 -60 14 -85 9 -46 6 -349 -3 -386 -3 -12 -8
-37 -11 -55 -10 -61 -17 -93 -21 -99 -2 -4 -7 -21 -10 -39 -3 -19 -12 -48 -19
-66 -8 -19 -12 -36 -8 -39 3 -3 -1 -6 -8 -6 -7 0 -10 -3 -7 -7 4 -3 2 -12 -3
-19 -6 -6 -10 -16 -8 -20 3 -11 -85 -187 -113 -225 -11 -16 -18 -29 -15 -29 3
0 -2 -8 -11 -18 -10 -11 -38 -47 -63 -82 -25 -35 -72 -90 -105 -123 -33 -33
-54 -57 -46 -52 9 5 12 4 7 -3 -4 -7 -12 -12 -17 -12 -10 0 -37 -23 -100 -82
-11 -10 -23 -18 -28 -18 -6 0 -16 -8 -23 -19 -7 -10 -16 -18 -20 -17 -4 0 -16
-7 -28 -16 -11 -10 -20 -16 -20 -13 0 5 -65 -36 -87 -55 -7 -6 -16 -11 -20
-11 -5 -1 -26 -10 -47 -21 -89 -46 -291 -114 -361 -123 -11 -1 -20 -3 -20 -5
0 -1 -11 -3 -25 -5 -14 -2 -54 -7 -90 -11 -135 -16 -326 -9 -455 17 -33 6 -67
13 -75 14 -8 1 -22 5 -30 7 -88 31 -177 60 -187 61 -7 0 -13 4 -13 9 0 4 -3 7
-7 6 -5 -1 -22 5 -39 15 -17 9 -34 13 -38 10 -3 -4 -6 -1 -6 5 0 7 -7 12 -15
12 -8 0 -15 5 -15 10 0 6 -6 10 -14 10 -7 0 -49 23 -92 51 -44 29 -80 51 -81
51 -3 -2 -49 40 -155 141 -48 46 -91 81 -94 78 -4 -3 -4 -1 -1 6 4 6 -4 20
-18 31 -13 11 -22 22 -18 25 3 4 -2 9 -11 13 -9 3 -16 10 -16 15 0 5 -16 30
-36 56 -20 26 -40 58 -45 70 -5 13 -13 23 -19 23 -6 0 -9 4 -5 10 3 5 -2 17
-12 27 -10 10 -18 23 -18 28 -1 16 -28 69 -40 77 -5 4 -6 8 -2 8 4 0 2 10 -5
23 -7 12 -13 24 -14 27 0 3 -3 12 -7 20 -5 14 -40 120 -42 130 -1 3 -5 17 -9
31 -4 14 -9 34 -11 45 -2 10 -4 19 -5 19 -1 0 -3 11 -5 25 -2 14 -6 39 -9 55
-9 47 -19 175 -19 235 0 61 12 217 18 240 2 8 6 31 9 50 3 19 12 58 20 87 8
28 11 54 8 57 -3 3 0 6 7 6 7 0 11 6 8 13 -2 6 9 42 24 79 15 36 25 69 21 72
-3 3 -1 6 5 6 9 0 27 42 20 46 -1 1 7 12 18 25 13 14 14 20 5 15 -8 -4 -6 0 4
8 11 9 16 16 12 16 -4 0 0 7 8 16 9 8 14 19 11 24 -3 4 2 11 11 14 9 4 14 9
11 12 -3 3 1 13 9 22 8 10 14 20 14 24 0 4 12 19 25 34 14 15 22 32 18 38 -3
6 -3 8 2 4 8 -8 65 64 65 82 0 5 3 9 8 8 4 -1 49 40 100 90 50 51 97 92 102
92 6 0 10 3 10 8 0 4 18 18 40 32 22 14 40 28 40 32 0 5 7 8 15 8 7 0 19 8 24
18 6 9 11 13 11 8 0 -5 8 -2 18 7 21 19 241 126 270 132 12 2 29 8 39 13 35
18 201 56 297 67 28 3 51 7 53 8 5 5 258 -1 311 -7z"/>
</g>
</svg>
